<?xml version="1.0" standalone="no"?><!DOCTYPE svg PUBLIC "-//W3C//DTD SVG 1.1//EN" "http://www.w3.org/Graphics/SVG/1.1/DTD/svg11.dtd"><svg class="icon" width="32px" height="32.00px" viewBox="0 0 1024 1024" version="1.1" xmlns="http://www.w3.org/2000/svg"><path d="M0 0h1024v1024H0V0z" fill="#202425" opacity=".01" /><path d="M638.532267 24.132267a34.133333 34.133333 0 0 0-48.264534 0L409.6 204.8h409.6L638.532267 24.132267zM307.2 921.6a68.266667 68.266667 0 1 1-136.533333 0 68.266667 68.266667 0 0 1 136.533333 0z m614.4 0a68.266667 68.266667 0 1 1-136.533333 0 68.266667 68.266667 0 0 1 136.533333 0z" fill="#FFAA44" /><path d="M34.133333 102.4a34.133333 34.133333 0 0 0 0 68.266667h40.584534L205.482667 792.098133A34.133333 34.133333 0 0 0 238.933333 819.2h614.4a34.133333 34.133333 0 1 0 0-68.266667H266.615467l-7.168-34.133333h602.282666a34.133333 34.133333 0 0 0 32.802134-24.746667l117.0432-409.6A34.133333 34.133333 0 0 0 978.7392 238.933333H158.856533l-23.04-109.431466A34.133333 34.133333 0 0 0 102.4 102.4H34.133333z" fill="#11AA66" /></svg>