<?xml version="1.0" standalone="no"?><!DOCTYPE svg PUBLIC "-//W3C//DTD SVG 1.1//EN" "http://www.w3.org/Graphics/SVG/1.1/DTD/svg11.dtd"><svg class="icon" width="32px" height="32.00px" viewBox="0 0 1024 1024" version="1.1" xmlns="http://www.w3.org/2000/svg"><path d="M512 299.5m-212.2 0a212.2 212.2 0 1 0 424.4 0 212.2 212.2 0 1 0-424.4 0Z" fill="#F9DB88" /><path d="M697.3 475.8c-0.8-0.4-1.8-0.3-2.4 0.4-46.3 48-111.1 78-182.9 78s-136.6-30-182.9-78c-0.6-0.6-1.6-0.8-2.4-0.4-117.1 65-196.6 189.5-196.6 332.9 0 113.3 76 132 189.2 132 56.4 0 122.2-4.7 192.6-4.7s136.2 4.7 192.7 4.7c113.3 0 189.2-18.7 189.2-132 0.1-143.4-79.4-267.9-196.5-332.9z" fill="#009F72" /></svg>